<svg width="51" height="52" viewBox="0 0 51 52" fill="none" xmlns="http://www.w3.org/2000/svg">
<path d="M39.9193 1V8.89604L32.1953 1H39.9193Z" fill="#6D00B0"/>
<path d="M1 30.3881H9.72102V21.5284H1V30.3881Z" fill="#6D00B0"/>
<path d="M41.3386 30.3881H50.0593V21.5284H41.3386V30.3881Z" fill="#6D00B0"/>
<path d="M11.14 51V43.104L18.864 51H11.14Z" fill="#6D00B0"/>
<path d="M19.8237 49.9375V42.0418H12.0998L19.8237 49.9375Z" fill="#6D00B0"/>
<path d="M31.2355 2.06247V9.95817H38.9595L31.2355 2.06247Z" fill="#6D00B0"/>
<path d="M32.1953 51L39.9193 43.104V51H32.1953Z" fill="#6D00B0"/>
<path d="M31.2355 49.9375L38.9595 42.0418H31.2355V49.9375Z" fill="#6D00B0"/>
<path d="M18.864 1L11.14 8.89604V1H18.864Z" fill="#6D00B0"/>
<path d="M19.8237 2.06247L12.0998 9.95817H19.8237V2.06247Z" fill="#6D00B0"/>
<path d="M1.03665 40.6976V32.8015L8.76061 40.6976H1.03665Z" fill="#6D00B0"/>
<path d="M9.72037 39.6351V31.7394H1.99641L9.72037 39.6351Z" fill="#6D00B0"/>
<path d="M50.0226 11.3024V19.1982L42.2987 11.3024H50.0226Z" fill="#6D00B0"/>
<path d="M41.3389 12.3646V20.2606H49.0629L41.3389 12.3646Z" fill="#6D00B0"/>
<path d="M42.2987 40.6976L50.0226 32.8015V40.6976H42.2987Z" fill="#6D00B0"/>
<path d="M41.3389 39.6351L49.0629 31.7394H41.3389V39.6351Z" fill="#6D00B0"/>
<path d="M8.76061 11.3024L1.03665 19.1982V11.3024H8.76061Z" fill="#6D00B0"/>
<path d="M9.72037 12.3646L1.99641 20.2606H9.72037V12.3646Z" fill="#6D00B0"/>
<path d="M12.0592 40.6976L19.7831 32.8015V40.6976H12.0592Z" fill="#6D00B0"/>
<path d="M31.2761 19.1982L39.0001 11.3024H31.2761V19.1982Z" fill="#6D00B0"/>
<path d="M31.2761 40.6976V32.8015L39.0001 40.6976H31.2761Z" fill="#6D00B0"/>
<path d="M19.7831 19.1982V11.3024H12.0592L19.7831 19.1982Z" fill="#6D00B0"/>
<path d="M18.864 31.7394L11.14 39.6351V31.7394H18.864Z" fill="#6D00B0"/>
<path d="M39.9193 12.3646L32.1953 20.2606H39.9193V12.3646Z" fill="#6D00B0"/>
<path d="M39.9193 31.7394V39.6351L32.1953 31.7394H39.9193Z" fill="#6D00B0"/>
<path d="M11.14 12.3646V20.2606H18.864L11.14 12.3646Z" fill="#6D00B0"/>
<path d="M29.8344 42.0438V51H21.078V42.0438H29.8344Z" fill="#6D00B0"/>
<path d="M21.2246 1V9.95617H29.9813V1H21.2246Z" fill="#6D00B0"/>
<path d="M9.73919 49.9459L1.78214 42.0418H9.73919V49.9459Z" fill="#6D00B0"/>
<path d="M49.2768 9.95818L41.3201 2.05413V9.95818H49.2768Z" fill="#6D00B0"/>
<path d="M41.3201 42.0418H49.2768L41.3201 49.9459V42.0418Z" fill="#6D00B0"/>
<path d="M1.78214 9.95818H9.73919V2.05413L1.78214 9.95818Z" fill="#6D00B0"/>
<path d="M39.9193 1V8.89604L32.1953 1H39.9193Z" stroke="#2B2A29" stroke-width="0.0762" stroke-miterlimit="22.9256"/>
<path d="M1 30.3881H9.72102V21.5284H1V30.3881Z" stroke="#2B2A29" stroke-width="0.0762" stroke-miterlimit="22.9256"/>
<path d="M41.3386 30.3881H50.0593V21.5284H41.3386V30.3881Z" stroke="#2B2A29" stroke-width="0.0762" stroke-miterlimit="22.9256"/>
<path d="M11.14 51V43.104L18.864 51H11.14Z" stroke="#2B2A29" stroke-width="0.0762" stroke-miterlimit="22.9256"/>
<path d="M19.8237 49.9375V42.0418H12.0998L19.8237 49.9375Z" stroke="#2B2A29" stroke-width="0.0762" stroke-miterlimit="22.9256"/>
<path d="M31.2355 2.06247V9.95817H38.9595L31.2355 2.06247Z" stroke="#2B2A29" stroke-width="0.0762" stroke-miterlimit="22.9256"/>
<path d="M32.1953 51L39.9193 43.104V51H32.1953Z" stroke="#2B2A29" stroke-width="0.0762" stroke-miterlimit="22.9256"/>
<path d="M31.2355 49.9375L38.9595 42.0418H31.2355V49.9375Z" stroke="#2B2A29" stroke-width="0.0762" stroke-miterlimit="22.9256"/>
<path d="M18.864 1L11.14 8.89604V1H18.864Z" stroke="#2B2A29" stroke-width="0.0762" stroke-miterlimit="22.9256"/>
<path d="M19.8237 2.06247L12.0998 9.95817H19.8237V2.06247Z" stroke="#2B2A29" stroke-width="0.0762" stroke-miterlimit="22.9256"/>
<path d="M1.03665 40.6976V32.8015L8.76061 40.6976H1.03665Z" stroke="#2B2A29" stroke-width="0.0762" stroke-miterlimit="22.9256"/>
<path d="M9.72037 39.6351V31.7394H1.99641L9.72037 39.6351Z" stroke="#2B2A29" stroke-width="0.0762" stroke-miterlimit="22.9256"/>
<path d="M50.0226 11.3024V19.1982L42.2987 11.3024H50.0226Z" stroke="#2B2A29" stroke-width="0.0762" stroke-miterlimit="22.9256"/>
<path d="M41.3389 12.3646V20.2606H49.0629L41.3389 12.3646Z" stroke="#2B2A29" stroke-width="0.0762" stroke-miterlimit="22.9256"/>
<path d="M42.2987 40.6976L50.0226 32.8015V40.6976H42.2987Z" stroke="#2B2A29" stroke-width="0.0762" stroke-miterlimit="22.9256"/>
<path d="M41.3389 39.6351L49.0629 31.7394H41.3389V39.6351Z" stroke="#2B2A29" stroke-width="0.0762" stroke-miterlimit="22.9256"/>
<path d="M8.76061 11.3024L1.03665 19.1982V11.3024H8.76061Z" stroke="#2B2A29" stroke-width="0.0762" stroke-miterlimit="22.9256"/>
<path d="M9.72037 12.3646L1.99641 20.2606H9.72037V12.3646Z" stroke="#2B2A29" stroke-width="0.0762" stroke-miterlimit="22.9256"/>
<path d="M12.0592 40.6976L19.7831 32.8015V40.6976H12.0592Z" stroke="#2B2A29" stroke-width="0.0762" stroke-miterlimit="22.9256"/>
<path d="M31.2761 19.1982L39.0001 11.3024H31.2761V19.1982Z" stroke="#2B2A29" stroke-width="0.0762" stroke-miterlimit="22.9256"/>
<path d="M31.2761 40.6976V32.8015L39.0001 40.6976H31.2761Z" stroke="#2B2A29" stroke-width="0.0762" stroke-miterlimit="22.9256"/>
<path d="M19.7831 19.1982V11.3024H12.0592L19.7831 19.1982Z" stroke="#2B2A29" stroke-width="0.0762" stroke-miterlimit="22.9256"/>
<path d="M18.864 31.7394L11.14 39.6351V31.7394H18.864Z" stroke="#2B2A29" stroke-width="0.0762" stroke-miterlimit="22.9256"/>
<path d="M39.9193 12.3646L32.1953 20.2606H39.9193V12.3646Z" stroke="#2B2A29" stroke-width="0.0762" stroke-miterlimit="22.9256"/>
<path d="M39.9193 31.7394V39.6351L32.1953 31.7394H39.9193Z" stroke="#2B2A29" stroke-width="0.0762" stroke-miterlimit="22.9256"/>
<path d="M11.14 12.3646V20.2606H18.864L11.14 12.3646Z" stroke="#2B2A29" stroke-width="0.0762" stroke-miterlimit="22.9256"/>
<path d="M29.8344 42.0438V51H21.078V42.0438H29.8344Z" stroke="#2B2A29" stroke-width="0.0762" stroke-miterlimit="22.9256"/>
<path d="M21.2246 1V9.95617H29.9813V1H21.2246Z" stroke="#2B2A29" stroke-width="0.0762" stroke-miterlimit="22.9256"/>
<path d="M9.73919 49.9459L1.78214 42.0418H9.73919V49.9459Z" stroke="#2B2A29" stroke-width="0.0762" stroke-miterlimit="22.9256"/>
<path d="M49.2768 9.95818L41.3201 2.05413V9.95818H49.2768Z" stroke="#2B2A29" stroke-width="0.0762" stroke-miterlimit="22.9256"/>
<path d="M41.3201 42.0418H49.2768L41.3201 49.9459V42.0418Z" stroke="#2B2A29" stroke-width="0.0762" stroke-miterlimit="22.9256"/>
<path d="M1.78214 9.95818H9.73919V2.05413L1.78214 9.95818Z" stroke="#2B2A29" stroke-width="0.0762" stroke-miterlimit="22.9256"/>
</svg>
